<svg width="35" height="35" viewBox="0 0 35 35" fill="none" xmlns="http://www.w3.org/2000/svg">
<path d="M24.5066 12.0685C25.3764 12.0685 26.0816 11.3633 26.0816 10.4935C26.0816 9.62361 25.3764 8.91846 24.5066 8.91846C23.6367 8.91846 22.9316 9.62361 22.9316 10.4935C22.9316 11.3633 23.6367 12.0685 24.5066 12.0685Z" fill="white"/>
<path d="M17.5 10.7603C16.167 10.7603 14.864 11.1556 13.7556 11.8962C12.6473 12.6367 11.7835 13.6893 11.2733 14.9208C10.7632 16.1524 10.6298 17.5075 10.8898 18.8148C11.1499 20.1222 11.7918 21.3231 12.7343 22.2657C13.6769 23.2082 14.8778 23.8501 16.1852 24.1102C17.4925 24.3702 18.8477 24.2368 20.0792 23.7267C21.3107 23.2165 22.3633 22.3527 23.1039 21.2444C23.8444 20.136 24.2397 18.833 24.2397 17.5C24.2397 15.7125 23.5296 13.9983 22.2657 12.7343C21.0017 11.4704 19.2875 10.7603 17.5 10.7603ZM17.5 21.875C16.6347 21.875 15.7889 21.6184 15.0694 21.1377C14.3499 20.6569 13.7892 19.9737 13.458 19.1742C13.1269 18.3748 13.0403 17.4951 13.2091 16.6465C13.3779 15.7978 13.7946 15.0183 14.4064 14.4064C15.0183 13.7946 15.7978 13.3779 16.6465 13.2091C17.4952 13.0403 18.3748 13.1269 19.1742 13.458C19.9737 13.7892 20.657 14.3499 21.1377 15.0694C21.6184 15.7888 21.875 16.6347 21.875 17.5C21.875 18.6603 21.4141 19.7731 20.5936 20.5936C19.7731 21.4141 18.6603 21.875 17.5 21.875Z" fill="white"/>
<path d="M17.5 6.73969C21.0044 6.73969 21.42 6.75281 22.8036 6.81625C23.6358 6.82613 24.46 6.97893 25.2405 7.26797C25.8067 7.48638 26.3209 7.82091 26.75 8.25002C27.1791 8.67914 27.5136 9.19334 27.732 9.75953C28.0211 10.54 28.1739 11.3642 28.1838 12.1964C28.2472 13.58 28.2603 13.9956 28.2603 17.5011C28.2603 21.0066 28.2472 21.42 28.1838 22.8036C28.1739 23.6358 28.0211 24.46 27.732 25.2405C27.5136 25.8067 27.1791 26.3209 26.75 26.75C26.3209 27.1791 25.8067 27.5136 25.2405 27.732C24.46 28.0211 23.6358 28.1739 22.8036 28.1838C21.42 28.2472 21.0044 28.2603 17.5 28.2603C13.9956 28.2603 13.58 28.2472 12.1964 28.1838C11.3642 28.1739 10.54 28.0211 9.75953 27.732C9.19334 27.5136 8.67914 27.1791 8.25002 26.75C7.82091 26.3209 7.48638 25.8067 7.26797 25.2405C6.97893 24.46 6.82613 23.6358 6.81625 22.8036C6.75281 21.42 6.73969 21.0044 6.73969 17.5C6.73969 13.9956 6.75281 13.58 6.81625 12.1964C6.82613 11.3642 6.97893 10.54 7.26797 9.75953C7.48638 9.19334 7.82091 8.67914 8.25002 8.25002C8.67914 7.82091 9.19334 7.48638 9.75953 7.26797C10.54 6.97893 11.3642 6.82613 12.1964 6.81625C13.58 6.75281 13.9956 6.73969 17.5 6.73969ZM17.5 4.375C13.9355 4.375 13.4881 4.39031 12.0881 4.45375C10.9996 4.47573 9.92267 4.68209 8.90313 5.06406C8.0311 5.40126 7.23916 5.91694 6.57805 6.57805C5.91694 7.23916 5.40126 8.0311 5.06406 8.90313C4.68197 9.92302 4.47561 11.0003 4.45375 12.0892C4.39031 13.4892 4.375 13.9344 4.375 17.5C4.375 21.0656 4.39031 21.5119 4.45375 22.9119C4.47573 24.0004 4.68209 25.0773 5.06406 26.0969C5.40126 26.9689 5.91694 27.7608 6.57805 28.4219C7.23916 29.0831 8.0311 29.5987 8.90313 29.9359C9.92302 30.318 11.0003 30.5244 12.0892 30.5462C13.4892 30.6097 13.9355 30.625 17.5 30.625C21.0645 30.625 21.5119 30.6097 22.9119 30.5462C24.0008 30.5244 25.0781 30.318 26.098 29.9359C26.97 29.5987 27.7619 29.0831 28.423 28.4219C29.0842 27.7608 29.5998 26.9689 29.937 26.0969C30.3188 25.0769 30.5247 23.9996 30.5462 22.9108C30.6097 21.5108 30.625 21.0656 30.625 17.5C30.625 13.9344 30.6097 13.4881 30.5462 12.0881C30.5243 10.9996 30.3179 9.92267 29.9359 8.90313C29.5987 8.0311 29.0831 7.23916 28.4219 6.57805C27.7608 5.91694 26.9689 5.40126 26.0969 5.06406C25.0769 4.68234 23.9996 4.47635 22.9108 4.45484C21.5108 4.38922 21.0656 4.375 17.5 4.375Z" fill="white"/>
</svg>
