<svg width="36" height="36" viewBox="0 0 36 36" fill="none" xmlns="http://www.w3.org/2000/svg">
<path d="M4.5 13.5C4.5 11.9087 5.13214 10.3826 6.25736 9.25736C7.38258 8.13214 8.9087 7.5 10.5 7.5H25.5C27.0913 7.5 28.6174 8.13214 29.7426 9.25736C30.8679 10.3826 31.5 11.9087 31.5 13.5V22.5C31.5 24.0913 30.8679 25.6174 29.7426 26.7426C28.6174 27.8679 27.0913 28.5 25.5 28.5H10.5C8.9087 28.5 7.38258 27.8679 6.25736 26.7426C5.13214 25.6174 4.5 24.0913 4.5 22.5V13.5Z" stroke="white" stroke-width="2" stroke-linecap="round" stroke-linejoin="round"/>
<path d="M15 13.5L22.5 18L15 22.5V13.5Z" stroke="white" stroke-width="2" stroke-linecap="round" stroke-linejoin="round"/>
</svg>
