<svg width="34" height="34" viewBox="0 0 34 34" fill="none" xmlns="http://www.w3.org/2000/svg">
<path fill-rule="evenodd" clip-rule="evenodd" d="M33.1571 23.8921C32.3865 22.3401 31.3709 20.9223 30.1495 19.6931C29.741 19.2315 29.3133 18.7872 28.8674 18.3614L28.8136 18.309C28.6481 18.1483 28.4847 17.9853 28.3234 17.8203C29.9931 15.4985 31.4219 13.0126 32.5876 10.4012L32.6344 10.2964L32.6669 10.1859C32.8214 9.67161 32.997 8.69411 32.3737 7.81011C31.7277 6.89778 30.6949 6.73344 30.0022 6.73344H26.8189C26.1524 6.70307 25.4934 6.88432 24.9361 7.25125C24.3788 7.61818 23.9519 8.15199 23.7164 8.77628C23.0314 10.4078 22.1736 11.9613 21.1579 13.4102V9.68011C21.1579 9.19844 21.1126 8.39094 20.5955 7.71094C19.9779 6.89494 19.0839 6.73344 18.4634 6.73344H13.4116C12.7524 6.71828 12.1126 6.95722 11.6247 7.4008C11.1368 7.84438 10.8382 8.4586 10.7908 9.11628L10.7865 9.18003V9.24378C10.7865 9.93086 11.0585 10.438 11.2767 10.7568C11.3744 10.8999 11.4779 11.0302 11.5444 11.1124L11.5586 11.1308C11.6294 11.2186 11.6762 11.2767 11.7229 11.3419C11.8476 11.509 12.0247 11.7697 12.0757 12.4412V14.5279C11.0616 12.8298 10.2301 11.0291 9.5951 9.15594L9.58377 9.12478L9.57244 9.09503C9.3996 8.64311 9.12335 7.98578 8.56944 7.48428C7.92344 6.89636 7.15844 6.73344 6.46285 6.73344H3.23285C2.52877 6.73344 1.68019 6.89778 1.04694 7.56503C0.42502 8.22236 0.354187 9.01003 0.354187 9.42653V9.61636L0.393854 9.80053C1.2882 13.9525 3.13119 17.8411 5.7786 21.1622C6.98897 23.0709 8.63218 24.6674 10.5749 25.8223C12.5177 26.9772 14.7053 27.6579 16.9604 27.8092L17.0184 27.8134H17.0779C18.1064 27.8134 19.1789 27.7242 19.9849 27.1873C21.0715 26.4619 21.1579 25.3499 21.1579 24.7945V23.1824C21.437 23.409 21.7827 23.7122 22.2063 24.1202C22.7191 24.633 23.1271 25.0779 23.477 25.466L23.664 25.6729C23.936 25.976 24.2038 26.2749 24.4474 26.52C24.7534 26.8274 25.1317 27.166 25.6049 27.4168C26.1191 27.6874 26.6589 27.8106 27.2312 27.8106H30.4626C31.144 27.8106 32.1201 27.6491 32.8072 26.8529C33.5552 25.9859 33.4985 24.922 33.2634 24.1584L33.2209 24.021L33.1571 23.8921ZM25.0538 24.0423C24.6147 23.5515 24.1626 23.0725 23.698 22.6058L23.6938 22.6015C21.7714 20.7485 20.8746 20.4269 20.2399 20.4269C19.9014 20.4269 19.5288 20.4638 19.2865 20.7669C19.1775 20.9116 19.1059 21.0809 19.0783 21.2599C19.0441 21.4678 19.0289 21.6783 19.0329 21.8889V24.7945C19.0329 25.1558 18.9734 25.3074 18.8063 25.4179C18.5839 25.5666 18.1093 25.687 17.0907 25.687C15.1558 25.5554 13.2798 24.9664 11.6169 23.9684C9.95405 22.9705 8.55176 21.5922 7.52535 19.9467L7.51402 19.9283L7.49985 19.9113C5.0336 16.8416 3.3148 13.2405 2.47919 9.39253C2.48485 9.20836 2.52452 9.09644 2.58969 9.02844C2.65627 8.95761 2.81919 8.85844 3.23285 8.85844H6.46285C6.82127 8.85844 7.00827 8.93778 7.14285 9.05819C7.29302 9.19703 7.42619 9.43078 7.58485 9.84728C8.37819 12.1791 9.44919 14.3608 10.4649 15.963C10.9721 16.7649 11.4708 17.4321 11.9213 17.9039C12.1465 18.139 12.3661 18.3345 12.5772 18.4734C12.7798 18.6065 13.0107 18.7128 13.2487 18.7128C13.3734 18.7128 13.5193 18.6986 13.6595 18.6377C13.811 18.5708 13.9357 18.4551 14.0137 18.309C14.1596 18.0427 14.2007 17.6503 14.2007 17.136V12.3576C14.1256 11.1988 13.7757 10.5457 13.4357 10.0824C13.3668 9.98979 13.296 9.89862 13.2232 9.80903L13.2048 9.78636C13.1444 9.71298 13.0867 9.63738 13.0319 9.55969C12.9622 9.47306 12.9202 9.3674 12.9115 9.25653C12.9226 9.14395 12.9764 9.03988 13.0617 8.96562C13.147 8.89135 13.2575 8.8525 13.3705 8.85703H18.4634C18.7553 8.85703 18.853 8.92786 18.9026 8.99444C18.9734 9.08653 19.0329 9.27778 19.0329 9.68011V16.0948C19.0329 16.8569 19.3843 17.3726 19.8943 17.3726C20.4808 17.3726 20.9044 17.017 21.6439 16.2775L21.6566 16.2634L21.6679 16.2506C23.3268 14.228 24.6822 11.9745 25.6913 9.56111L25.6969 9.54411C25.7728 9.33088 25.9163 9.14831 26.1055 9.02426C26.2948 8.9002 26.5195 8.84147 26.7453 8.85703H30.0036C30.4456 8.85703 30.5901 8.97036 30.6383 9.03694C30.6879 9.10778 30.7233 9.25936 30.6383 9.55686C29.4746 12.1584 28.0361 14.628 26.3472 16.9235L26.3359 16.9405C26.1729 17.1913 25.993 17.4689 25.9675 17.7863C25.9392 18.1291 26.0865 18.4394 26.3458 18.7737C26.5342 19.0514 26.9238 19.4324 27.319 19.8192L27.3559 19.856C27.7695 20.2612 28.2186 20.7004 28.5784 21.1254L28.5884 21.1353L28.5983 21.1466C29.6713 22.2169 30.5636 23.4541 31.2404 24.8101C31.348 25.1784 31.2829 25.3683 31.1979 25.466C31.1001 25.5794 30.8805 25.6856 30.464 25.6856H27.2312C27.0109 25.691 26.7928 25.6398 26.5979 25.5369C26.3591 25.3979 26.1423 25.2241 25.9548 25.0212C25.7522 24.8186 25.5326 24.5735 25.2634 24.2746L25.0552 24.0423H25.0538Z" fill="white"/>
</svg>
