<svg width="25" height="25" viewBox="0 0 25 25" fill="none" xmlns="http://www.w3.org/2000/svg">
<path d="M12.5 12.5C10.8958 12.5 9.52255 11.9289 8.38019 10.7865C7.23783 9.64414 6.66665 8.27087 6.66665 6.66671C6.66665 5.06254 7.23783 3.68928 8.38019 2.54692C9.52255 1.40455 10.8958 0.833374 12.5 0.833374C14.1041 0.833374 15.4774 1.40455 16.6198 2.54692C17.7621 3.68928 18.3333 5.06254 18.3333 6.66671C18.3333 8.27087 17.7621 9.64414 16.6198 10.7865C15.4774 11.9289 14.1041 12.5 12.5 12.5ZM0.833313 24.1667V20.0834C0.833313 19.257 1.04623 18.4972 1.47206 17.804C1.8979 17.1108 2.46276 16.5824 3.16665 16.2188C4.67359 15.4653 6.20484 14.9 7.7604 14.5227C9.31595 14.1455 10.8958 13.9574 12.5 13.9584C14.1041 13.9584 15.684 14.147 17.2396 14.5242C18.7951 14.9014 20.3264 15.4663 21.8333 16.2188C22.5382 16.5834 23.1035 17.1123 23.5294 17.8055C23.9552 18.4986 24.1676 19.258 24.1666 20.0834V24.1667H0.833313ZM3.74998 21.25H21.25V20.0834C21.25 19.816 21.1829 19.573 21.0487 19.3542C20.9146 19.1355 20.7386 18.9653 20.5208 18.8438C19.2083 18.1875 17.8837 17.6956 16.5469 17.368C15.21 17.0403 13.8611 16.876 12.5 16.875C11.1389 16.875 9.78991 17.0393 8.45311 17.368C7.1163 17.6966 5.79165 18.1885 4.47915 18.8438C4.2604 18.9653 4.08394 19.1355 3.94977 19.3542C3.8156 19.573 3.74901 19.816 3.74998 20.0834V21.25ZM12.5 9.58337C13.3021 9.58337 13.9889 9.29754 14.5606 8.72587C15.1323 8.15421 15.4176 7.46782 15.4166 6.66671C15.4166 5.86462 15.1308 5.17775 14.5591 4.60608C13.9875 4.03442 13.3011 3.74907 12.5 3.75004C11.6979 3.75004 11.011 4.03587 10.4394 4.60754C9.86769 5.17921 9.58234 5.8656 9.58331 6.66671C9.58331 7.46879 9.86915 8.15567 10.4408 8.72733C11.0125 9.299 11.6989 9.58435 12.5 9.58337Z" fill="white"/>
</svg>
