<svg width="30" height="31" viewBox="0 0 30 31" fill="none" xmlns="http://www.w3.org/2000/svg">
<path d="M9.20831 30.0833C8.40623 30.0833 7.71935 29.7975 7.14769 29.2258C6.57602 28.6541 6.29067 27.9677 6.29165 27.1666C6.29165 26.3645 6.57748 25.6777 7.14915 25.106C7.72081 24.5343 8.4072 24.249 9.20831 24.25C10.0104 24.25 10.6973 24.5358 11.2689 25.1075C11.8406 25.6791 12.126 26.3655 12.125 27.1666C12.125 27.9687 11.8391 28.6556 11.2675 29.2273C10.6958 29.7989 10.0094 30.0843 9.20831 30.0833ZM23.7916 30.0833C22.9896 30.0833 22.3027 29.7975 21.731 29.2258C21.1594 28.6541 20.874 27.9677 20.875 27.1666C20.875 26.3645 21.1608 25.6777 21.7325 25.106C22.3041 24.5343 22.9905 24.249 23.7916 24.25C24.5937 24.25 25.2806 24.5358 25.8523 25.1075C26.4239 25.6791 26.7093 26.3655 26.7083 27.1666C26.7083 27.9687 26.4225 28.6556 25.8508 29.2273C25.2791 29.7989 24.5928 30.0843 23.7916 30.0833ZM7.96873 6.74996L11.4687 14.0416H21.6771L25.6875 6.74996H7.96873ZM6.58331 3.83329H28.0937C28.6528 3.83329 29.0781 4.08267 29.3698 4.58142C29.6614 5.08017 29.6736 5.58427 29.4062 6.09371L24.2291 15.427C23.9618 15.9132 23.603 16.2899 23.1529 16.5573C22.7028 16.8246 22.2108 16.9583 21.6771 16.9583H10.8125L9.20831 19.875H26.7083V22.7916H9.20831C8.11456 22.7916 7.28817 22.3113 6.72915 21.3508C6.17012 20.3902 6.14581 19.4365 6.65623 18.4895L8.62498 14.9166L3.37498 3.83329H0.458313V0.916626H5.1979L6.58331 3.83329Z" fill="white"/>
</svg>
