<svg width="31" height="27" viewBox="0 0 31 27" fill="none" xmlns="http://www.w3.org/2000/svg">
<path d="M26.6708 1.81873C22.8208 -0.806273 18.0667 0.418727 15.5 3.42289C12.9333 0.418727 8.17915 -0.820856 4.32915 1.81873C2.28749 3.21873 1.00415 5.58123 0.916652 8.07498C0.712485 13.7333 5.72915 18.2687 13.3854 25.225L13.5312 25.3562C14.6396 26.3625 16.3458 26.3625 17.4542 25.3416L17.6146 25.1958C25.2708 18.2541 30.2729 13.7187 30.0833 8.0604C29.9958 5.58123 28.7125 3.21873 26.6708 1.81873ZM15.6458 23.0521L15.5 23.1979L15.3542 23.0521C8.41248 16.7666 3.83332 12.6104 3.83332 8.39581C3.83332 5.47914 6.02082 3.29164 8.93748 3.29164C11.1833 3.29164 13.3708 4.73539 14.1437 6.73331H16.8708C17.6292 4.73539 19.8167 3.29164 22.0625 3.29164C24.9792 3.29164 27.1667 5.47914 27.1667 8.39581C27.1667 12.6104 22.5875 16.7666 15.6458 23.0521Z" fill="white"/>
</svg>
