<svg width="16" height="24" viewBox="0 0 24 24" fill="none" xmlns="http://www.w3.org/2000/svg">
<path d="M17.1895 15.127H16.1032L15.7182 14.7557C16.5775 13.7574 17.2056 12.5815 17.5574 11.3122C17.9092 10.0429 17.976 8.71144 17.7532 7.41323C17.107 3.59073 13.917 0.53823 10.067 0.0707295C8.71345 -0.100505 7.33869 0.0401655 6.04789 0.481977C4.75709 0.923788 3.58447 1.65503 2.61975 2.61975C1.65503 3.58447 0.923788 4.75709 0.481977 6.04789C0.0401655 7.33869 -0.100505 8.71345 0.0707295 10.067C0.538229 13.917 3.59073 17.107 7.41323 17.7532C8.71144 17.976 10.0429 17.9092 11.3122 17.5574C12.5815 17.2056 13.7574 16.5775 14.7557 15.7182L15.127 16.1032V17.1895L20.9707 23.0332C21.5345 23.597 22.4557 23.597 23.0195 23.0332C23.5832 22.4695 23.5832 21.5482 23.0195 20.9845L17.1895 15.127ZM8.93948 15.127C5.51573 15.127 2.75198 12.3632 2.75198 8.93948C2.75198 5.51573 5.51573 2.75198 8.93948 2.75198C12.3632 2.75198 15.127 5.51573 15.127 8.93948C15.127 12.3632 12.3632 15.127 8.93948 15.127Z" fill="black"/>
</svg>
